<svg width="28" height="28" viewBox="0 0 31 28" fill="none" xmlns="http://www.w3.org/2000/svg">
<path d="M1 1.09326H9.63557C11.1624 1.09326 12.6268 1.69981 13.7064 2.77946C14.7861 3.85912 15.3926 5.32344 15.3926 6.85031V27C15.3926 25.8548 14.9377 24.7566 14.128 23.9468C13.3182 23.1371 12.22 22.6822 11.0748 22.6822H1V1.09326Z" stroke="#000" stroke-width="2" stroke-linecap="round" stroke-linejoin="round"/>
<path d="M29.7852 1.09326H21.1496C19.6228 1.09326 18.1584 1.69981 17.0788 2.77946C15.9991 3.85912 15.3926 5.32344 15.3926 6.85031V27C15.3926 25.8548 15.8475 24.7566 16.6572 23.9468C17.467 23.1371 18.5652 22.6822 19.7104 22.6822H29.7852V1.09326Z" stroke="#000" stroke-width="2" stroke-linecap="round" stroke-linejoin="round"/>
</svg>
