<svg width="28" height="28" viewBox="0 0 28 31" fill="none" xmlns="http://www.w3.org/2000/svg">
<path d="M1 6.77783H3.88889H27" stroke="#fff" stroke-width="2" stroke-linecap="round" stroke-linejoin="round"/>
<path d="M24.1109 6.77778V27C24.1109 27.7662 23.8065 28.501 23.2648 29.0428C22.723 29.5845 21.9882 29.8889 21.222 29.8889H6.77756C6.01138 29.8889 5.27658 29.5845 4.73481 29.0428C4.19304 28.501 3.88867 27.7662 3.88867 27V6.77778M8.22201 6.77778V3.88889C8.22201 3.12271 8.52637 2.38791 9.06814 1.84614C9.60991 1.30436 10.3447 1 11.1109 1H16.8887C17.6549 1 18.3897 1.30436 18.9314 1.84614C19.4732 2.38791 19.7776 3.12271 19.7776 3.88889V6.77778" stroke="#fff" stroke-width="2" stroke-linecap="round" stroke-linejoin="round"/>
<path d="M11.1113 14V22.6667" stroke="#fff" stroke-width="2" stroke-linecap="round" stroke-linejoin="round"/>
<path d="M16.8887 14V22.6667" stroke="#fff" stroke-width="2" stroke-linecap="round" stroke-linejoin="round"/>
</svg>
